<!DOCTYPE svg PUBLIC "-//W3C//DTD SVG 1.1//EN" "http://www.w3.org/Graphics/SVG/1.1/DTD/svg11.dtd">
<!-- Uploaded to: SVG Repo, www.svgrepo.com, Transformed by: SVG Repo Mixer Tools -->
<svg height="64px" width="64px" version="1.1" id="Layer_1" xmlns="http://www.w3.org/2000/svg" xmlns:xlink="http://www.w3.org/1999/xlink" viewBox="-76.8 -76.8 665.60 665.60" xml:space="preserve" fill="#000000">
<g id="SVGRepo_bgCarrier" stroke-width="0"/>
<g id="SVGRepo_tracerCarrier" stroke-linecap="round" stroke-linejoin="round"/>
<g id="SVGRepo_iconCarrier"> <path style="fill:#998373;" d="M512,156.248L156.248,512L0,355.752L355.752,0L512,156.248z"/> <g> <path style="fill:#514439;" d="M38.841,388.414c-2.648,0-4.414-0.883-6.179-2.648c-3.531-3.531-3.531-8.828,0-12.359l98.869-98.869 c3.531-3.531,8.828-3.531,12.359,0c3.531,3.531,3.531,8.828,0,12.359l-98.869,98.869C43.255,387.531,41.49,388.414,38.841,388.414"/> <path style="fill:#514439;" d="M180.966,246.29c-2.648,0-4.414-0.883-6.179-2.648c-3.531-3.531-3.531-8.828,0-12.359L256,150.069 c3.531-3.531,8.828-3.531,12.359,0c3.531,3.531,3.531,8.828,0,12.359l-81.214,81.214 C185.379,245.407,183.614,246.29,180.966,246.29"/> <path style="fill:#514439;" d="M293.959,134.179c-2.648,0-4.414-0.883-6.179-2.648c-3.531-3.531-3.531-8.828,0-12.359 l56.497-56.497c3.531-3.531,8.828-3.531,12.359,0c3.531,3.531,3.531,8.828,0,12.359l-56.497,56.497 C298.372,133.297,295.724,134.179,293.959,134.179"/> <path style="fill:#514439;" d="M69.738,419.31c-2.648,0-4.414-0.883-6.179-2.648c-3.531-3.531-3.531-8.828,0-12.359l67.09-67.09 c3.531-3.531,8.828-3.531,12.359,0c3.531,3.531,3.531,8.828,0,12.359l-67.09,67.09C75.034,418.428,72.386,419.31,69.738,419.31"/> <path style="fill:#514439;" d="M274.538,215.393c-2.648,0-4.414-0.883-6.179-2.648c-3.531-3.531-3.531-8.828,0-12.359 l50.317-50.317c3.531-3.531,8.828-3.531,12.359,0c3.531,3.531,3.531,8.828,0,12.359l-50.317,50.317 C278.952,214.51,277.186,215.393,274.538,215.393"/> <path style="fill:#514439;" d="M349.572,140.359c-2.648,0-4.414-0.883-6.179-2.648c-3.531-3.531-3.531-8.828,0-12.359l60.91-60.91 c3.531-3.531,8.828-3.531,12.359,0c3.531,3.531,3.531,8.828,0,12.359l-60.91,60.91 C353.986,139.476,352.221,140.359,349.572,140.359"/> <path style="fill:#514439;" d="M101.517,451.09c-2.648,0-4.414-0.883-6.179-2.648c-3.531-3.531-3.531-8.828,0-12.359l23.834-23.834 c3.531-3.531,8.828-3.531,12.359,0c3.531,3.531,3.531,8.828,0,12.359l-23.834,23.835 C105.931,450.207,103.283,451.09,101.517,451.09"/> <path style="fill:#514439;" d="M132.414,481.986c-2.648,0-4.414-0.883-6.179-2.648c-3.531-3.531-3.531-8.828,0-12.359l67.09-67.09 c3.531-3.531,8.828-3.531,12.359,0c3.531,3.531,3.531,8.828,0,12.359l-67.09,67.09 C136.828,481.103,135.062,481.986,132.414,481.986"/> <path style="fill:#514439;" d="M343.393,208.331c-2.648,0-4.414-0.883-6.179-2.648c-3.531-3.531-3.531-8.828,0-12.359 l44.138-43.255c3.531-3.531,8.828-3.531,12.359,0c3.531,3.531,3.531,8.828,0,12.359l-44.138,43.255 C347.807,207.448,346.041,208.331,343.393,208.331"/> <path style="fill:#514439;" d="M418.428,134.179c-2.648,0-4.414-0.883-6.179-2.648c-3.531-3.531-3.531-8.828,0-12.359 l23.834-23.834c3.531-3.531,8.828-3.531,12.359,0c3.531,3.531,3.531,8.828,0,12.359l-23.835,23.834 C422.841,133.297,420.193,134.179,418.428,134.179"/> <path style="fill:#514439;" d="M231.283,312.497c-7.062-7.062-17.655-7.062-24.717,0c-7.062,7.062-7.062,17.655,0,24.717 c7.062,7.062,17.655,7.062,24.717,0C238.345,330.152,238.345,319.559,231.283,312.497"/> <path style="fill:#514439;" d="M162.428,390.179c-2.648,0-4.414-0.883-6.179-2.648c-3.531-3.531-3.531-8.828,0-12.359 l19.421-19.421c-13.241-22.952-8.828-53.848,5.297-67.972l56.497-56.497c3.531-3.531,8.828-3.531,12.359,0 c3.531,3.531,3.531,8.828,0,12.359l-56.497,56.497c-8.828,8.828-12.359,34.428,0.883,50.317c2.648,3.531,2.648,8.828-0.883,11.476 l-24.717,24.717C166.841,389.297,165.076,390.179,162.428,390.179"/> <path style="fill:#514439;" d="M231.283,383.117c-2.648,0-4.414-0.883-6.179-2.648c-3.531-3.531-3.531-8.828,0-12.359 l18.538-18.538c16.772-16.772,16.772-33.545,0-50.317c-3.531-3.531-3.531-8.828,0-12.359l62.676-62.676 c3.531-3.531,8.828-3.531,12.359,0c3.531,3.531,3.531,8.828,0,12.359l-56.497,56.497c17.655,22.069,15.007,46.786-6.179,67.972 l-18.538,18.538C235.697,382.234,233.048,383.117,231.283,383.117"/> <path style="fill:#514439;" d="M300.138,315.145c-2.648,0-4.414-0.883-6.179-2.648c-3.531-3.531-3.531-8.828,0-12.359 l62.676-62.676c3.531-3.531,8.828-3.531,12.359,0c3.531,3.531,3.531,8.828,0,12.359l-62.676,62.676 C304.552,314.262,301.903,315.145,300.138,315.145"/> <path style="fill:#514439;" d="M436.966,177.434c-2.648,0-4.414-0.883-6.179-2.648c-3.531-3.531-3.531-8.828,0-12.359l35.31-35.31 c3.531-3.531,8.828-3.531,12.359,0c3.531,3.531,3.531,8.828,0,12.359l-35.31,35.31 C441.379,176.552,439.614,177.434,436.966,177.434"/> <path style="fill:#514439;" d="M393.71,221.572c-2.648,0-4.414-0.883-6.179-2.648c-3.531-3.531-3.531-8.828,0-12.359l12.359-12.359 c3.531-3.531,8.828-3.531,12.359,0c3.531,3.531,3.531,8.828,0,12.359l-12.359,12.359 C398.124,220.69,395.476,221.572,393.71,221.572"/> </g> </g>
</svg>