<!DOCTYPE svg PUBLIC "-//W3C//DTD SVG 1.1//EN" "http://www.w3.org/Graphics/SVG/1.1/DTD/svg11.dtd">
<!-- Uploaded to: SVG Repo, www.svgrepo.com, Transformed by: SVG Repo Mixer Tools -->
<svg height="64px" width="64px" version="1.1" id="Layer_1" xmlns="http://www.w3.org/2000/svg" xmlns:xlink="http://www.w3.org/1999/xlink" viewBox="-76.8 -76.8 665.59 665.59" xml:space="preserve" fill="#000000">
<g id="SVGRepo_bgCarrier" stroke-width="0"/>
<g id="SVGRepo_tracerCarrier" stroke-linecap="round" stroke-linejoin="round"/>
<g id="SVGRepo_iconCarrier"> <path style="fill:#434A54;" d="M191.901,357.901c-3.094-3.094-4.078-7.891-2.125-12.062c2.484-5.344,8.843-7.656,14.187-5.172 l113.216,52.842c5.344,2.5,7.656,8.844,5.156,14.188c-2.484,5.344-8.844,7.656-14.188,5.156l-113.215-52.826 C193.776,359.479,192.76,358.761,191.901,357.901z"/> <path style="fill:#5D9CEC;" d="M237.181,508.849c-0.531-0.531-1-1.109-1.422-1.749l-79.545-123.389 c-3.203-4.951-1.781-11.545,3.172-14.748c4.969-3.188,11.578-1.766,14.766,3.188l16.25-16.141c-3.125-5-1.609-11.594,3.391-14.719 c4.999-3.125,11.577-1.609,14.702,3.406l75.483,120.763c2.641,4.218,2.016,9.687-1.5,13.202l-30.187,30.187 c-2.281,2.281-5.484,3.422-8.688,3.078C241.149,511.662,238.899,510.568,237.181,508.849z"/> <path style="fill:#434A54;" d="M25.702,418.415c-3.156-3.156-4.109-8.109-2-12.328c2.641-5.266,9.046-7.406,14.328-4.766 l23.312,11.656l123.012-123.012c4.156-4.172,10.922-4.172,15.093,0c4.172,4.172,4.172,10.922,0,15.094L70.998,433.508 c-3.25,3.25-8.219,4.062-12.328,2l-30.187-15.093C27.421,419.884,26.499,419.212,25.702,418.415z"/> <polygon points="214.54,335.246 154.152,274.872 169.261,259.763 229.634,320.152 "/> <polygon style="fill:#656D78;" points="139.058,289.966 154.152,274.872 214.54,335.246 199.447,350.354 "/> <path style="fill:#CCD1D9;" d="M410.785,78.611c-4.156-4.172-4.156-10.921,0-15.093l60.404-60.389 c4.172-4.172,10.922-4.172,15.094,0c4.172,4.156,4.172,10.921,0,15.093l-60.389,60.389 C421.722,82.783,414.957,82.783,410.785,78.611z"/> <path style="fill:#E6E9ED;" d="M131.512,413.852c-2.75,0-5.484-1.047-7.547-3.125l-45.296-45.279 c-3.75-3.766-4.171-9.703-0.984-13.953l45.296-60.389c0.297-0.406,0.625-0.781,0.984-1.141L380.598,33.331 c4.172-4.172,10.921-4.172,15.093,0l60.39,60.389c2,2,3.125,4.703,3.125,7.546c0,2.828-1.125,5.547-3.125,7.547L199.447,365.448 c-0.359,0.359-0.734,0.688-1.141,0.984l-60.389,45.295C136.011,413.149,133.762,413.852,131.512,413.852z M100.325,356.901 l32.187,32.186l52.374-39.279l248.556-248.541l-45.296-45.295L139.605,304.528L100.325,356.901z"/> <polygon style="fill:#5D9CEC;" points="222.087,342.792 418.347,146.547 342.866,71.064 146.605,267.325 "/> <path style="fill:#4A89DC;" d="M259.837,229.576L259.837,229.576c-6.063-6.047-9.391-14.093-9.391-22.64 c0-8.562,3.328-16.594,9.391-22.64c12.484-12.5,32.796-12.5,45.279,0c12.484,12.484,12.484,32.796,0,45.28 C292.633,242.06,272.321,242.06,259.837,229.576L259.837,229.576z M290.023,199.389c-4.156-4.172-10.937-4.172-15.093,0 c-2.016,2.016-3.125,4.688-3.125,7.547c0,2.844,1.109,5.531,3.125,7.546l0,0c4.156,4.156,10.937,4.156,15.093,0 C294.18,210.327,294.18,203.545,290.023,199.389z"/> <path style="fill:#E6E9ED;" d="M456.081,93.72l-60.39-60.389c-4.172-4.172-10.921-4.172-15.093,0l-37.732,37.733l75.481,75.482 l37.733-37.733c2-2,3.125-4.719,3.125-7.547C459.206,98.423,458.081,95.72,456.081,93.72z"/> </g>
</svg>